<svg width="25" height="25" viewBox="0 0 25 25" fill="none" xmlns="http://www.w3.org/2000/svg">
<path d="M22.9167 12.4999C22.9184 13.872 22.6483 15.2307 22.1218 16.4978C21.5954 17.7648 20.823 18.9149 19.8495 19.8817C18.8839 20.8456 17.7378 21.6097 16.4767 22.1305C15.2157 22.6512 13.8644 22.9184 12.5 22.9166C6.74688 22.9166 2.08334 18.2531 2.08334 12.4999C2.0797 9.82897 3.10567 7.25938 4.94792 5.32545C5.91997 4.29972 7.09111 3.48313 8.38965 2.92565C9.6882 2.36817 11.0868 2.08152 12.5 2.08326C13.8644 2.08149 15.2157 2.34862 16.4767 2.86936C17.7378 3.39011 18.8839 4.15426 19.8495 5.11816C20.823 6.08494 21.5954 7.23507 22.1218 8.50209C22.6483 9.76911 22.9184 11.1279 22.9167 12.4999V12.4999Z" stroke="white" stroke-width="2" stroke-linecap="round" stroke-linejoin="round"/>
<path d="M22.9167 12.5C21.3969 12.5 17.2042 11.9271 13.4516 13.5745C9.37501 15.3646 6.42344 18.1411 5.13699 19.8682" stroke="white" stroke-width="2" stroke-linecap="round" stroke-linejoin="round"/>
<path d="M8.59375 2.84058C10.224 4.34526 13.7812 8.17651 15.1042 11.9791C16.4271 15.7822 16.9167 20.4583 17.2188 21.789" stroke="white" stroke-width="2" stroke-linecap="round" stroke-linejoin="round"/>
<path d="M2.16354 11.1978C4.13125 11.3165 9.34011 11.4233 12.6734 9.99984C16.0068 8.5764 18.875 5.95817 19.8589 5.12744" stroke="white" stroke-width="2" stroke-linecap="round" stroke-linejoin="round"/>
<path d="M2.86459 16.4651C3.78246 18.6869 5.43787 20.5246 7.55209 21.6687" stroke="white" stroke-width="2" stroke-linecap="round" stroke-linejoin="round"/>
<path d="M2.08334 12.4999C2.0797 9.82897 3.10567 7.25937 4.94792 5.32544" stroke="white" stroke-width="2" stroke-linecap="round" stroke-linejoin="round"/>
<path d="M12.5 2.08326C11.0868 2.08152 9.6882 2.36817 8.38965 2.92565C7.0911 3.48313 5.91997 4.29972 4.94792 5.32545" stroke="white" stroke-width="2" stroke-linecap="round" stroke-linejoin="round"/>
<path d="M16.6667 2.94995C17.8529 3.46898 18.9322 4.20424 19.8495 5.11818C20.823 6.08496 21.5954 7.23509 22.1218 8.50211C22.6483 9.76913 22.9184 11.1279 22.9167 12.4999C22.9167 13.7828 22.6849 15.0109 22.2604 16.1458" stroke="white" stroke-width="2" stroke-linecap="round" stroke-linejoin="round"/>
<path d="M12.5 22.9165C13.8644 22.9183 15.2157 22.6511 16.4767 22.1304C17.7378 21.6096 18.8839 20.8455 19.8495 19.8816" stroke="white" stroke-width="2" stroke-linecap="round" stroke-linejoin="round"/>
</svg>
