<svg width="25" height="25" viewBox="0 0 25 25" fill="none" xmlns="http://www.w3.org/2000/svg">
<path fill-rule="evenodd" clip-rule="evenodd" d="M1.04167 2.95633C1.04167 2.44856 1.24339 1.96157 1.60244 1.60252C1.96149 1.24347 2.44848 1.04175 2.95626 1.04175H22.0417C22.2933 1.04134 22.5426 1.09057 22.7752 1.18661C23.0077 1.28266 23.2191 1.42364 23.3971 1.60148C23.5752 1.77932 23.7164 1.99053 23.8127 2.22301C23.909 2.4555 23.9585 2.70469 23.9583 2.95633V22.0418C23.9586 22.2934 23.9093 22.5427 23.8131 22.7753C23.7169 23.0079 23.5759 23.2193 23.3979 23.3973C23.22 23.5753 23.0087 23.7165 22.7762 23.8128C22.5437 23.9091 22.2944 23.9586 22.0427 23.9584H2.95626C2.70474 23.9584 2.45569 23.9089 2.22334 23.8126C1.99098 23.7163 1.77987 23.5752 1.60207 23.3973C1.42427 23.2194 1.28327 23.0082 1.18711 22.7758C1.09096 22.5434 1.04154 22.2943 1.04167 22.0428V2.95633ZM10.1125 9.77925H13.2156V11.3376C13.6635 10.4418 14.8094 9.6355 16.5313 9.6355C19.8323 9.6355 20.6146 11.4199 20.6146 14.6938V20.7584H17.274V15.4397C17.274 13.5751 16.826 12.523 15.6885 12.523C14.1104 12.523 13.4542 13.6574 13.4542 15.4397V20.7584H10.1125V9.77925ZM4.38334 20.6157H7.72501V9.6355H4.38334V20.6147V20.6157ZM8.20313 6.05425C8.20943 6.34037 8.15852 6.62486 8.05338 6.89104C7.94824 7.15721 7.791 7.3997 7.59087 7.60428C7.39075 7.80886 7.15178 7.97141 6.88798 8.08238C6.62418 8.19336 6.34088 8.25052 6.05469 8.25052C5.76851 8.25052 5.4852 8.19336 5.22141 8.08238C4.95761 7.97141 4.71864 7.80886 4.51851 7.60428C4.31839 7.3997 4.16114 7.15721 4.05601 6.89104C3.95087 6.62486 3.89996 6.34037 3.90626 6.05425C3.91862 5.49264 4.15041 4.9582 4.55197 4.56538C4.95353 4.17256 5.49295 3.9526 6.05469 3.9526C6.61644 3.9526 7.15585 4.17256 7.55742 4.56538C7.95898 4.9582 8.19076 5.49264 8.20313 6.05425Z" fill="white"/>
</svg>
