<svg width="30" height="30" viewBox="0 0 30 30" fill="none" xmlns="http://www.w3.org/2000/svg">
<path fill-rule="evenodd" clip-rule="evenodd" d="M24.33 20.5852C25.896 14.8386 22.188 8.90315 16.0965 7.29835C9.2175 5.4841 -0.546002 10.1953 1.626 16.2383C2.346 18.237 3.732 18.7045 6.3465 18.7414L6.51 18.7444C7.8915 18.7606 8.28 18.8491 8.397 19.0349C8.5875 19.3417 8.5905 19.83 8.376 21.1737C8.274 21.8079 8.241 22.0292 8.202 22.3758C7.9635 24.4865 8.3265 26.1326 9.732 27.6224C14.124 32.2731 22.5615 27.0722 24.33 20.5852ZM4.455 15.253C3.3615 12.2145 10.359 8.83825 15.3195 10.1451C19.845 11.3384 22.5585 15.6823 21.432 19.8196C20.175 24.4334 14.259 28.0796 11.931 25.6134C11.211 24.8523 11.0325 24.0381 11.184 22.7003C11.2155 22.4142 11.2455 22.2165 11.34 21.6295C11.6685 19.5689 11.664 18.6278 10.953 17.4906C10.062 16.0643 9.003 15.8239 6.5475 15.7929L6.3885 15.7899C4.9425 15.7708 4.599 15.6542 4.4535 15.253H4.455Z" fill="#222A36"/>
<path d="M9 14.75C8.50272 14.75 8.02581 14.5557 7.67417 14.21C7.32254 13.8642 7.125 13.3952 7.125 12.9062C7.125 12.4173 7.32254 11.9483 7.67417 11.6025C8.02581 11.2568 8.50272 11.0625 9 11.0625C9.49728 11.0625 9.97419 11.2568 10.3258 11.6025C10.6775 11.9483 10.875 12.4173 10.875 12.9062C10.875 13.3952 10.6775 13.8642 10.3258 14.21C9.97419 14.5557 9.49728 14.75 9 14.75Z" fill="#222A36"/>
<path d="M14.625 14.75C14.1277 14.75 13.6508 14.5557 13.2992 14.21C12.9475 13.8642 12.75 13.3952 12.75 12.9062C12.75 12.4173 12.9475 11.9483 13.2992 11.6025C13.6508 11.2568 14.1277 11.0625 14.625 11.0625C15.1223 11.0625 15.5992 11.2568 15.9508 11.6025C16.3025 11.9483 16.5 12.4173 16.5 12.9062C16.5 13.3952 16.3025 13.8642 15.9508 14.21C15.5992 14.5557 15.1223 14.75 14.625 14.75Z" fill="#222A36"/>
<path d="M18.375 19.175C17.8777 19.175 17.4008 18.9808 17.0492 18.635C16.6975 18.2893 16.5 17.8203 16.5 17.3313C16.5 16.8423 16.6975 16.3733 17.0492 16.0276C17.4008 15.6818 17.8777 15.4875 18.375 15.4875C18.8723 15.4875 19.3492 15.6818 19.7008 16.0276C20.0525 16.3733 20.25 16.8423 20.25 17.3313C20.25 17.8203 20.0525 18.2893 19.7008 18.635C19.3492 18.9808 18.8723 19.175 18.375 19.175Z" fill="#222A36"/>
<path d="M16.125 24.3375C15.6277 24.3375 15.1508 24.1433 14.7992 23.7975C14.4475 23.4517 14.25 22.9828 14.25 22.4938C14.25 22.0048 14.4475 21.5358 14.7992 21.19C15.1508 20.8443 15.6277 20.65 16.125 20.65C16.6223 20.65 17.0992 20.8443 17.4508 21.19C17.8025 21.5358 18 22.0048 18 22.4938C18 22.9828 17.8025 23.4517 17.4508 23.7975C17.0992 24.1433 16.6223 24.3375 16.125 24.3375Z" fill="#222A36"/>
<path d="M21.555 5.31754C21.7329 5.22384 21.9281 5.16639 22.1291 5.14862C22.33 5.13086 22.5326 5.15315 22.7246 5.21415C22.9166 5.27516 23.0941 5.37363 23.2465 5.50367C23.3989 5.63371 23.523 5.79264 23.6115 5.97097L29.751 18.361C29.8535 18.5837 29.8659 18.8364 29.7857 19.0678C29.7055 19.2992 29.5387 19.4918 29.3192 19.6066C29.0997 19.7214 28.844 19.7497 28.6041 19.6857C28.3641 19.6217 28.158 19.4703 28.0275 19.2622L20.9655 7.35894C20.864 7.18771 20.7987 6.99808 20.7735 6.80142C20.7483 6.60477 20.7638 6.40514 20.819 6.2145C20.8742 6.02387 20.9679 5.84616 21.0947 5.69203C21.2214 5.5379 21.3785 5.41052 21.5565 5.31754H21.555Z" fill="#222A36"/>
<path fill-rule="evenodd" clip-rule="evenodd" d="M18.8055 5.13899C19.536 6.48861 20.7645 6.86621 21.9525 6.24524C23.139 5.62574 23.5095 4.41181 22.779 3.06219C21.945 1.51639 20.157 0.115138 18.972 0.733163C17.787 1.35266 17.97 3.59319 18.807 5.13899H18.8055ZM20.13 4.44574C19.8644 3.92128 19.7016 3.35235 19.65 2.76866C19.6277 2.52465 19.6367 2.27884 19.677 2.03706L19.704 2.05034C19.779 2.08574 20.0115 2.19194 20.3085 2.42499C20.7615 2.78046 21.2115 3.30409 21.4545 3.75396C21.798 4.38821 21.7005 4.70681 21.2475 4.94429C20.7975 5.18029 20.4735 5.07999 20.13 4.44721V4.44574Z" fill="#222A36"/>
</svg>
