<svg width="102" height="100" viewBox="0 0 102 100" fill="none" xmlns="http://www.w3.org/2000/svg">
<path d="M48.1624 69.2063C48.1155 69.3 48.0687 69.375 48.1624 69.2063V69.2063ZM87.0874 55.6125C83.9437 55.6125 80.8437 56.3313 78.0249 57.7219C77.103 55.8625 76.1499 54.2375 75.9937 53.0188C75.8062 51.5969 75.603 50.7531 75.8218 49.0656C76.0405 47.3781 77.0249 44.9875 77.0093 44.8156C76.9937 44.6438 76.7905 43.7844 74.7749 43.7688C72.7593 43.7531 71.0249 44.1594 70.8218 44.6906C70.4651 45.6613 70.1882 46.6594 69.9937 47.675C69.6343 49.5031 65.9655 56.0344 63.8874 59.4406C63.1999 58.1125 62.6218 56.9406 62.4968 56.0031C62.3093 54.5813 62.1062 53.7375 62.3249 52.05C62.5437 50.3625 63.528 47.9719 63.5124 47.8C63.4968 47.6281 63.2937 46.7688 61.2812 46.7531C59.2687 46.7375 57.5312 47.1438 57.328 47.675C57.1249 48.2063 56.9062 49.4563 56.4999 50.6594C56.0937 51.8625 51.203 62.7375 49.9249 65.5656C49.2687 67.0031 48.7062 68.1594 48.2999 68.9406C48.2374 69.0656 48.1905 69.1438 48.1593 69.2063C48.2062 69.1281 48.2374 69.05 48.2374 69.0813C47.8937 69.7531 47.6905 70.1281 47.6905 70.1281V70.1438C47.4249 70.6438 47.128 71.0969 46.9874 71.0969C46.8937 71.0969 46.6905 69.7844 47.0343 67.9875C47.7687 64.2063 49.503 58.3313 49.4874 58.1281C49.4718 58.0188 49.8155 57.0031 48.3468 56.4563C46.9249 55.9406 46.4093 56.8 46.2843 56.8C46.1593 56.8 46.0655 57.1125 46.0655 57.1125C46.0655 57.1125 47.6437 50.4875 43.0343 50.4875C40.1593 50.4875 36.1593 53.6438 34.1937 56.5031C32.9593 57.175 30.2874 58.6281 27.4749 60.175L24.2405 61.9563C24.1624 61.8781 24.0999 61.8 24.0218 61.7219C18.428 55.7531 8.10303 51.5344 8.54053 43.5188C8.69678 40.5969 9.71241 32.925 28.3968 23.6125C43.7093 15.9875 55.9499 18.0813 58.0593 22.7375C61.0905 29.3781 51.5124 41.7375 35.6124 43.5188C29.5499 44.1906 26.3655 41.8469 25.5687 40.9719C24.7405 40.05 24.6155 40.0031 24.303 40.175C23.7874 40.4563 24.1155 41.2688 24.303 41.7531C24.7718 42.9875 26.7249 45.175 30.053 46.2688C32.9749 47.2219 40.0812 47.7531 48.6718 44.425C58.3249 40.7063 65.8405 30.3469 63.6343 21.675C61.3905 12.8625 46.778 9.97188 32.9624 14.8781C24.728 17.8 15.8249 22.3938 9.42178 28.3781C1.81241 35.5031 0.596785 41.7063 1.09678 44.3C2.87803 53.5031 15.5624 59.5031 20.6374 63.9406L19.9343 64.3313C17.3874 65.5969 7.71866 70.6594 5.29678 76.0031C2.56241 82.0656 5.74991 86.4094 7.84053 87.0031C14.3718 88.8156 21.0562 85.55 24.6499 80.1906C28.2437 74.8313 27.8062 67.8313 26.1499 64.6438C26.1343 64.5969 26.103 64.5656 26.0874 64.5188C27.9623 63.4082 29.8531 62.3248 31.7593 61.2688C31.1343 62.9563 30.6812 64.9875 30.4468 67.925C30.1655 71.3625 31.5874 75.8156 33.4312 77.5656C34.2437 78.3313 35.2249 78.3469 35.8374 78.3469C37.9937 78.3469 38.9624 76.5656 40.0405 74.4406C41.3687 71.8469 42.5405 68.8313 42.5405 68.8313C42.5405 68.8313 41.0718 76.9875 45.0874 76.9875C46.5562 76.9875 48.0249 75.0969 48.6812 74.1281V74.1438C48.6812 74.1438 48.7124 74.0813 48.7905 73.9563C48.9468 73.7219 49.0249 73.5813 49.0249 73.5813V73.5344C49.6187 72.5188 50.9155 70.1906 52.8687 66.3469C55.3999 61.3781 57.8187 55.175 57.8187 55.175C58.053 56.5375 58.378 57.8844 58.7874 59.2063C59.2249 60.6906 60.1468 62.3156 60.8812 63.8938C60.2874 64.7063 59.928 65.175 59.928 65.175C59.928 65.1875 59.9343 65.1969 59.9437 65.2063C59.4749 65.8313 58.9437 66.5031 58.3968 67.1594C56.3999 69.5344 54.0218 72.2531 53.7093 73.0344C53.3343 73.9563 53.428 74.6438 54.1468 75.175C54.678 75.5813 55.6155 75.6438 56.5999 75.5656C58.3968 75.4406 59.6624 75.0031 60.2718 74.7219C61.3957 74.3192 62.458 73.7617 63.428 73.0656C65.3812 71.6281 66.5687 69.5656 66.4593 66.8469C66.3968 65.3469 65.9124 63.8469 65.3187 62.4406C65.4905 62.1906 65.678 61.925 65.8499 61.6594C67.8832 58.6255 69.7153 55.4614 71.3343 52.1875C71.5687 53.55 71.8905 54.8969 72.303 56.2188C72.678 57.4844 73.4124 58.875 74.0843 60.2344C71.178 62.5938 69.3812 65.3281 68.7593 67.125C67.603 70.4531 68.5093 71.9531 70.2124 72.2969C70.978 72.4531 72.0718 72.0938 72.8843 71.75C74.0905 71.3469 75.228 70.7625 76.2562 70.0156C78.2093 68.5781 80.0999 66.5625 79.9718 63.8281C79.9249 62.5938 79.5812 61.3594 79.128 60.1719C81.5812 59.1406 84.7687 58.5781 88.8312 59.0469C97.5312 60.0625 99.2343 65.5 98.9062 67.7656C98.578 70.0313 96.7499 71.2969 96.1405 71.6719C95.5312 72.0469 95.3437 72.1875 95.3905 72.4688C95.4687 72.875 95.7499 72.8594 96.2655 72.7656C96.9843 72.6406 100.828 70.9219 101 66.7188C101.25 61.4063 96.1405 55.5625 87.0937 55.6094L87.0874 55.6125ZM20.028 78.2219C17.153 81.3625 13.1249 82.55 11.3905 81.55C9.53116 80.4688 10.2655 75.8469 13.8093 72.5C15.9655 70.4688 18.7468 68.5938 20.5905 67.4375C21.0124 67.1875 21.6218 66.8125 22.3718 66.3594C22.4327 66.3203 22.4953 66.2838 22.5593 66.25C22.6999 66.1563 22.8562 66.0781 23.0124 65.9844C24.3062 70.7344 23.0593 74.9219 20.028 78.2188V78.2219ZM41.0218 63.9406C40.0218 66.3938 37.9155 72.6438 36.6312 72.3156C35.5374 72.0344 34.8655 67.2688 36.4124 62.5813C37.1937 60.2219 38.8499 57.4094 39.8343 56.3156C41.4124 54.55 43.1468 53.9875 43.553 54.6906C44.0999 55.6125 41.6468 62.4094 41.0218 63.9406ZM58.3655 72.2219C57.9437 72.4406 57.553 72.5813 57.3655 72.4719C57.2249 72.3938 57.5374 72.0969 57.5374 72.0969C57.5374 72.0969 59.7093 69.7688 60.5687 68.7063C61.0687 68.0813 61.6468 67.3469 62.2718 66.5344C62.2718 66.6125 62.2874 66.6906 62.2874 66.7844C62.2687 69.5813 59.5812 71.4719 58.3624 72.2219H58.3655ZM71.7405 69.175C71.428 68.9563 71.4749 68.2219 72.5218 65.9406C72.928 65.05 73.8655 63.55 75.4905 62.1125C75.6749 62.6563 75.7749 63.225 75.7874 63.8C75.7718 67.3156 73.2562 68.6281 71.7405 69.175Z" fill="white" fill-opacity="0.5"/>
</svg>
