<svg width="25" height="25" viewBox="0 0 25 25" fill="none" xmlns="http://www.w3.org/2000/svg">
<path d="M19.3359 13.7046C18.1883 13.7046 17.1102 13.2202 16.1336 12.4272L16.3695 11.3085L16.3773 11.264C16.593 10.0757 17.2602 8.07803 19.3352 8.07803C20.0818 8.07823 20.7979 8.37495 21.3259 8.90293C21.8539 9.43092 22.1506 10.147 22.1508 10.8937C22.1495 11.6397 21.8524 12.3547 21.3245 12.8818C20.7966 13.409 20.0812 13.7052 19.3352 13.7054L19.3359 13.7046ZM19.3359 5.22881C16.6914 5.22881 14.6359 6.946 13.8023 9.77412C12.5328 7.86553 11.5641 5.571 11.0031 3.63818H8.15469V11.0476C8.15324 11.7508 7.87325 12.4248 7.37601 12.922C6.87876 13.4192 6.20477 13.6992 5.50156 13.7007C4.79854 13.6986 4.12491 13.4184 3.6278 12.9213C3.13069 12.4242 2.8505 11.7506 2.84844 11.0476V3.63818H0V11.0476C0 14.0827 2.46953 16.5694 5.50156 16.5694C8.53672 16.5694 11.0031 14.0835 11.0031 11.0476V9.80615C11.5562 10.9577 12.2359 12.1296 13.0617 13.1632L11.3164 21.3624H14.2297L15.4953 15.4132C16.6023 16.121 17.8758 16.5687 19.3367 16.5687C22.4617 16.5687 25.0008 14.0132 25.0008 10.8921C25.0008 7.76709 22.4617 5.22803 19.3367 5.22803L19.3359 5.22881Z" fill="white"/>
</svg>
