<svg width="26" height="25" viewBox="0 0 26 25" fill="none" xmlns="http://www.w3.org/2000/svg">
<path d="M24.4793 6.77824C24.3377 6.27328 24.062 5.81611 23.6814 5.45533C23.29 5.08346 22.8103 4.81745 22.2876 4.68241C20.3314 4.16679 12.4939 4.16679 12.4939 4.16679C9.22652 4.12961 5.95995 4.29311 2.71263 4.65637C2.18991 4.80138 1.71114 5.07334 1.31888 5.44804C0.933465 5.81887 0.654298 6.27616 0.508465 6.7772C0.158145 8.66444 -0.0120641 10.5807 0.00013173 12.5001C-0.0123683 14.4178 0.157423 16.3335 0.508465 18.223C0.651173 18.722 0.929298 19.1772 1.31576 19.5449C1.70222 19.9126 2.18347 20.1782 2.71263 20.3189C4.69492 20.8335 12.4939 20.8335 12.4939 20.8335C15.7654 20.8707 19.0361 20.7072 22.2876 20.3439C22.8103 20.2088 23.29 19.9428 23.6814 19.571C24.0668 19.2032 24.3408 18.746 24.4783 18.248C24.8377 16.3615 25.0125 14.4445 25.0001 12.5241C25.0272 10.5955 24.8526 8.66946 24.4793 6.7772V6.77824ZM10.0022 16.0668V8.93449L16.5231 12.5012L10.0022 16.0668Z" fill="white"/>
</svg>
